<?xml version="1.0" encoding="UTF-8" standalone="no"?>
<svg
   xmlns:osb="http://www.openswatchbook.org/uri/2009/osb"
   xmlns:dc="http://purl.org/dc/elements/1.1/"
   xmlns:cc="http://creativecommons.org/ns#"
   xmlns:rdf="http://www.w3.org/1999/02/22-rdf-syntax-ns#"
   xmlns:svg="http://www.w3.org/2000/svg"
   xmlns="http://www.w3.org/2000/svg"
   xmlns:xlink="http://www.w3.org/1999/xlink"
   xmlns:sodipodi="http://sodipodi.sourceforge.net/DTD/sodipodi-0.dtd"
   xmlns:inkscape="http://www.inkscape.org/namespaces/inkscape"
   width="50mm"
   height="50mm"
   viewBox="0 0 50 50"
   version="1.1"
   id="svg5715"
   sodipodi:docname="logo.svg"
   inkscape:version="1.0 (6e3e5246a0, 2020-05-07)">
  <sodipodi:namedview
     inkscape:document-rotation="0"
     pagecolor="#ffffff"
     bordercolor="#666666"
     borderopacity="1"
     objecttolerance="10"
     gridtolerance="10"
     guidetolerance="10"
     inkscape:pageopacity="0"
     inkscape:pageshadow="2"
     inkscape:window-width="1861"
     inkscape:window-height="1025"
     id="namedview405"
     showgrid="false"
     inkscape:zoom="4.4979167"
     inkscape:cx="94.488189"
     inkscape:cy="94.488189"
     inkscape:window-x="59"
     inkscape:window-y="27"
     inkscape:window-maximized="1"
     inkscape:current-layer="g1473" />
  <defs
     id="defs5709">
    <linearGradient
       inkscape:collect="always"
       id="linearGradient427">
      <stop
         style="stop-color:#ff7f2a;stop-opacity:1;"
         offset="0"
         id="stop423" />
      <stop
         style="stop-color:#ff7f2a;stop-opacity:0;"
         offset="1"
         id="stop425" />
    </linearGradient>
    <linearGradient
       gradientTransform="matrix(0,0,0,0,-0.16054819,9.590033)"
       osb:paint="solid"
       id="linearGradient4609">
      <stop
         id="stop4607"
         offset="0"
         style="stop-color:#ffffff;stop-opacity:1;" />
    </linearGradient>
    <linearGradient
       gradientUnits="userSpaceOnUse"
       gradientTransform="matrix(-1.9003918e-5,0,0,-4.8668474e-5,-50.855263,90.922291)"
       id="linearGradient934"
       xlink:href="#linearGradient4609" />
    <linearGradient
       gradientTransform="translate(-64.999999,-22)"
       xlink:href="#linearGradient4688"
       id="linearGradient4690"
       x1="65"
       y1="22"
       x2="115"
       y2="72"
       gradientUnits="userSpaceOnUse" />
    <linearGradient
       id="linearGradient4688">
      <stop
         style="stop-color:#7a9eda;stop-opacity:1"
         offset="0"
         id="stop4684" />
      <stop
         style="stop-color:#e67300;stop-opacity:1"
         offset="1"
         id="stop4686" />
    </linearGradient>
    <linearGradient
       inkscape:collect="always"
       xlink:href="#linearGradient427"
       id="linearGradient429"
       x1="51.114365"
       y1="50.934559"
       x2="-42.767998"
       y2="-42.388943"
       gradientUnits="userSpaceOnUse" />
  </defs>
  <metadata
     id="metadata5712">
    <rdf:RDF>
      <cc:Work
         rdf:about="">
        <dc:format>image/svg+xml</dc:format>
        <dc:type
           rdf:resource="http://purl.org/dc/dcmitype/StillImage" />
        <dc:title />
      </cc:Work>
    </rdf:RDF>
  </metadata>
  <rect
     rx="3.9999998"
     y="7.2265628e-08"
     x="4.020996e-07"
     height="50"
     width="50"
     id="rect817-3"
     style="opacity:1;vector-effect:none;fill:url(#linearGradient429);fill-opacity:1;fill-rule:nonzero;stroke:none;stroke-width:1.00012505;stroke-linecap:round;stroke-linejoin:miter;stroke-miterlimit:4;stroke-dasharray:none;stroke-dashoffset:0;stroke-opacity:0.99215686" />
  <g
     id="g1473"
     transform="matrix(0.25632293,0,0,0.43380112,-67.768098,-181.82777)">
    <g
       transform="matrix(1.3883057,0,0,1.3222144,-139.19958,-154.79953)"
       id="g1471"
       style="fill:#ffffff">
      <path
         id="path1469"
         d="m 363.05541,440.2957 c -32.82688,0 -58.54615,5.90664 -58.54615,13.44456 v 44.81518 c 0,7.53792 25.71927,13.44456 58.54615,13.44456 32.82687,0 58.54614,-5.90664 58.54614,-13.44456 v -44.81518 c 0,-7.53792 -25.71927,-13.44456 -58.54614,-13.44456 z m 52.69161,58.25974 c 0,4.94466 -21.63869,10.45693 -52.69161,10.45693 -31.05293,0 -52.69162,-5.51227 -52.69162,-10.45693 v -9.01681 c 9.38488,4.48754 29.18539,7.52293 52.69162,7.52293 23.50622,0 43.30673,-3.03553 52.69161,-7.52293 z m 0,-14.93844 c 0,4.94466 -21.63869,10.45693 -52.69161,10.45693 -31.05293,0 -52.69162,-5.51227 -52.69162,-10.45693 v -9.01682 c 9.38488,4.48754 29.18539,7.52293 52.69162,7.52293 23.50622,0 43.30673,-3.03552 52.69161,-7.52293 z m 0,-14.9383 c 0,4.94465 -21.63869,10.45692 -52.69161,10.45692 -31.05293,0 -52.69162,-5.51227 -52.69162,-10.45692 v -9.01681 c 9.38488,4.48739 29.18539,7.52293 52.69162,7.52293 23.50622,0 43.30673,-3.03554 52.69161,-7.52293 z m -52.69161,-4.48152 c -31.05293,0 -52.69162,-5.51226 -52.69162,-10.45692 0,-4.94466 21.63869,-10.45692 52.69162,-10.45692 31.05292,0 52.69161,5.51226 52.69161,10.45692 0,4.94466 -21.63869,10.45692 -52.69161,10.45692 z"
         style="fill:#ffffff;stroke-width:0.196046" />
    </g>
    <rect
       style="fill:#ffffff;fill-opacity:1;stroke-width:1.07502"
       id="rect1570"
       width="9.1984367"
       height="60.318352"
       x="335.54645"
       y="459.92331"
       rx="3.8931394" />
  </g>
</svg>
