<?xml version="1.0" encoding="UTF-8" standalone="no"?>
<svg
   xmlns:osb="http://www.openswatchbook.org/uri/2009/osb"
   xmlns:dc="http://purl.org/dc/elements/1.1/"
   xmlns:cc="http://creativecommons.org/ns#"
   xmlns:rdf="http://www.w3.org/1999/02/22-rdf-syntax-ns#"
   xmlns:svg="http://www.w3.org/2000/svg"
   xmlns="http://www.w3.org/2000/svg"
   xmlns:xlink="http://www.w3.org/1999/xlink"
   xmlns:sodipodi="http://sodipodi.sourceforge.net/DTD/sodipodi-0.dtd"
   xmlns:inkscape="http://www.inkscape.org/namespaces/inkscape"
   width="50mm"
   height="50mm"
   viewBox="0 0 50 50"
   version="1.1"
   id="svg5715"
   sodipodi:docname="logo_trans.svg"
   inkscape:export-filename="/home/hachterberg/Documents/infrastructure/website/task_trans.png"
   inkscape:export-xdpi="260.09601"
   inkscape:export-ydpi="260.09601"
   inkscape:version="1.0 (6e3e5246a0, 2020-05-07)">
  <defs
     id="defs5709">
    <linearGradient
       gradientTransform="matrix(0,0,0,0,180.90371,175.10334)"
       osb:paint="solid"
       id="linearGradient4609">
      <stop
         id="stop4607"
         offset="0"
         style="stop-color:#ffffff;stop-opacity:1;" />
    </linearGradient>
    <linearGradient
       gradientUnits="userSpaceOnUse"
       gradientTransform="matrix(-1.9003918e-5,0,0,-4.8668474e-5,-14.62312,124.04134)"
       id="linearGradient934"
       xlink:href="#linearGradient4609" />
  </defs>
  <sodipodi:namedview
     id="base"
     pagecolor="#ffffff"
     bordercolor="#666666"
     borderopacity="1.0"
     inkscape:pageopacity="0.0"
     inkscape:pageshadow="2"
     inkscape:zoom="4.4979167"
     inkscape:cx="94.488189"
     inkscape:cy="94.488189"
     inkscape:document-units="mm"
     inkscape:current-layer="layer1"
     showgrid="false"
     fit-margin-top="0"
     fit-margin-left="0"
     fit-margin-right="0"
     fit-margin-bottom="0"
     inkscape:window-width="1861"
     inkscape:window-height="1025"
     inkscape:window-x="59"
     inkscape:window-y="27"
     inkscape:window-maximized="1"
     inkscape:document-rotation="0" />
  <metadata
     id="metadata5712">
    <rdf:RDF>
      <cc:Work
         rdf:about="">
        <dc:format>image/svg+xml</dc:format>
        <dc:type
           rdf:resource="http://purl.org/dc/dcmitype/StillImage" />
        <dc:title />
      </cc:Work>
    </rdf:RDF>
  </metadata>
  <g
     inkscape:label="Layer 1"
     inkscape:groupmode="layer"
     id="layer1"
     transform="translate(-36.232143,-33.119049)">
    <g
       style="fill:#ffffff"
       id="g1471"
       transform="matrix(0.35585458,0,0,0.57357809,-67.320315,-215.02869)">
      <path
         style="fill:#ffffff;stroke-width:0.196046"
         d="m 363.05541,440.2957 c -32.82688,0 -58.54615,5.90664 -58.54615,13.44456 v 44.81518 c 0,7.53792 25.71927,13.44456 58.54615,13.44456 32.82687,0 58.54614,-5.90664 58.54614,-13.44456 v -44.81518 c 0,-7.53792 -25.71927,-13.44456 -58.54614,-13.44456 z m 52.69161,58.25974 c 0,4.94466 -21.63869,10.45693 -52.69161,10.45693 -31.05293,0 -52.69162,-5.51227 -52.69162,-10.45693 v -9.01681 c 9.38488,4.48754 29.18539,7.52293 52.69162,7.52293 23.50622,0 43.30673,-3.03553 52.69161,-7.52293 z m 0,-14.93844 c 0,4.94466 -21.63869,10.45693 -52.69161,10.45693 -31.05293,0 -52.69162,-5.51227 -52.69162,-10.45693 v -9.01682 c 9.38488,4.48754 29.18539,7.52293 52.69162,7.52293 23.50622,0 43.30673,-3.03552 52.69161,-7.52293 z m 0,-14.9383 c 0,4.94465 -21.63869,10.45692 -52.69161,10.45692 -31.05293,0 -52.69162,-5.51227 -52.69162,-10.45692 v -9.01681 c 9.38488,4.48739 29.18539,7.52293 52.69162,7.52293 23.50622,0 43.30673,-3.03554 52.69161,-7.52293 z m -52.69161,-4.48152 c -31.05293,0 -52.69162,-5.51226 -52.69162,-10.45692 0,-4.94466 21.63869,-10.45692 52.69162,-10.45692 31.05292,0 52.69161,5.51226 52.69161,10.45692 0,4.94466 -21.63869,10.45692 -52.69161,10.45692 z"
         id="path1469" />
    </g>
    <rect
       rx="0.9979009"
       y="51.638779"
       x="54.367973"
       height="26.16617"
       width="2.3577702"
       id="rect1570"
       style="fill:#ffffff;fill-opacity:1;stroke-width:0.358473" />
  </g>
</svg>
