<?xml version="1.0" encoding="UTF-8" standalone="no"?>
<svg
   xmlns:dc="http://purl.org/dc/elements/1.1/"
   xmlns:cc="http://creativecommons.org/ns#"
   xmlns:rdf="http://www.w3.org/1999/02/22-rdf-syntax-ns#"
   xmlns:svg="http://www.w3.org/2000/svg"
   xmlns="http://www.w3.org/2000/svg"
   xmlns:sodipodi="http://sodipodi.sourceforge.net/DTD/sodipodi-0.dtd"
   xmlns:inkscape="http://www.inkscape.org/namespaces/inkscape"
   width="2566.2827"
   height="884.64484"
   viewBox="0 0 678.99563 234.06228"
   version="1.1"
   id="svg8"
   inkscape:version="1.0.2 (1.0.2+r75+1)"
   sodipodi:docname="logo.svg">
  <defs
     id="defs2" />
  <sodipodi:namedview
     id="base"
     pagecolor="#ffffff"
     bordercolor="#666666"
     borderopacity="1.0"
     inkscape:pageopacity="0.0"
     inkscape:pageshadow="2"
     inkscape:zoom="0.38126142"
     inkscape:cx="1504.8507"
     inkscape:cy="330.0889"
     inkscape:document-units="px"
     inkscape:current-layer="layer1"
     inkscape:document-rotation="0"
     showgrid="false"
     units="px"
     lock-margins="true"
     fit-margin-top="25"
     fit-margin-left="25"
     fit-margin-right="25"
     fit-margin-bottom="25"
     inkscape:window-width="1875"
     inkscape:window-height="1035"
     inkscape:window-x="45"
     inkscape:window-y="45"
     inkscape:window-maximized="1"
     showguides="true"
     inkscape:guide-bbox="true"
     inkscape:snap-bbox="false"
     inkscape:bbox-paths="true">
    <inkscape:grid
       type="axonomgrid"
       id="grid855"
       originx="-120.17465"
       originy="-17.738847" />
  </sodipodi:namedview>
  <metadata
     id="metadata5">
    <rdf:RDF>
      <cc:Work
         rdf:about="">
        <dc:format>image/svg+xml</dc:format>
        <dc:type
           rdf:resource="http://purl.org/dc/dcmitype/StillImage" />
        <dc:title></dc:title>
      </cc:Work>
    </rdf:RDF>
  </metadata>
  <g
     inkscape:label="Layer 1"
     inkscape:groupmode="layer"
     id="layer1"
     transform="translate(-120.17465,-17.738845)">
    <g
       id="g2488"
       transform="matrix(1.8018768,0,0,1.8011608,844.73826,-853.63608)"
       style="stroke-width:0.555087">
      <g
         id="g2430"
         transform="translate(3.3915572e-6,-14.00001)"
         style="stroke:#ffffff;stroke-width:0.0734336;stroke-miterlimit:4;stroke-dasharray:none;stroke-opacity:1">
        <path
           style="font-variation-settings:normal;opacity:1;vector-effect:none;fill:#130754;fill-opacity:1;stroke:#ffffff;stroke-width:0.0734336;stroke-linecap:butt;stroke-linejoin:miter;stroke-miterlimit:4;stroke-dasharray:none;stroke-dashoffset:0;stroke-opacity:1;stop-color:#000000;stop-opacity:1"
           d="m -376.72106,580.50001 v 17.99997 l 8.66026,5.00001 V 585.5 Z"
           id="path2378"
           sodipodi:nodetypes="ccccc" />
        <path
           style="font-variation-settings:normal;opacity:1;vector-effect:none;fill:#130754;fill-opacity:1;stroke:#ffffff;stroke-width:0.0734336;stroke-linecap:butt;stroke-linejoin:miter;stroke-miterlimit:4;stroke-dasharray:none;stroke-dashoffset:0;stroke-opacity:1;stop-color:#000000;stop-opacity:1"
           d="m -368.06078,603.5 8.66024,-5.00001 -2e-5,-17.99998 -8.66024,4.99999 z"
           id="path2380"
           sodipodi:nodetypes="ccccc" />
        <path
           style="font-variation-settings:normal;opacity:1;vector-effect:none;fill:#130754;fill-opacity:1;stroke:#ffffff;stroke-width:0.0734336;stroke-linecap:butt;stroke-linejoin:miter;stroke-miterlimit:4;stroke-dasharray:none;stroke-dashoffset:0;stroke-opacity:1;stop-color:#000000;stop-opacity:1"
           d="m -359.40056,580.50001 -8.66024,-5.00002 -8.66026,5.00002 8.66026,4.99999 z"
           id="path2382" />
        <path
           style="font-variation-settings:normal;opacity:1;vector-effect:none;fill:#ffca00;fill-opacity:1;stroke:#ffffff;stroke-width:0.0734336;stroke-linecap:butt;stroke-linejoin:miter;stroke-miterlimit:4;stroke-dasharray:none;stroke-dashoffset:0;stroke-opacity:1;stop-color:#000000;stop-opacity:1"
           d="m -376.72105,562.50001 v 9.99998 l 8.66026,5.00001 v -10 z"
           id="path2354" />
        <path
           style="font-variation-settings:normal;opacity:1;vector-effect:none;fill:#ffca00;fill-opacity:1;stroke:#ffffff;stroke-width:0.0734336;stroke-linecap:butt;stroke-linejoin:miter;stroke-miterlimit:4;stroke-dasharray:none;stroke-dashoffset:0;stroke-opacity:1;stop-color:#000000;stop-opacity:1"
           d="m -368.06079,577.5 8.66024,-5.00001 v -9.99998 l -8.66024,4.99999 z"
           id="path2362" />
        <path
           style="font-variation-settings:normal;opacity:1;vector-effect:none;fill:#ffca00;fill-opacity:1;stroke:#ffffff;stroke-width:0.0734336;stroke-linecap:butt;stroke-linejoin:miter;stroke-miterlimit:4;stroke-dasharray:none;stroke-dashoffset:0;stroke-opacity:1;stop-color:#000000;stop-opacity:1"
           d="m -359.40055,562.50001 -8.66024,-5.00002 -8.66026,5.00002 8.66026,4.99999 z"
           id="path2370" />
        <path
           style="font-variation-settings:normal;opacity:1;vector-effect:none;fill:#130754;fill-opacity:1;stroke:#ffffff;stroke-width:0.0734336;stroke-linecap:butt;stroke-linejoin:miter;stroke-miterlimit:4;stroke-dasharray:none;stroke-dashoffset:0;stroke-opacity:1;stop-color:#000000;stop-opacity:1"
           d="m -376.72106,536.50002 v 17.99997 l 8.66026,5.00001 v -17.99999 z"
           id="path2386"
           sodipodi:nodetypes="ccccc" />
        <path
           style="font-variation-settings:normal;opacity:1;vector-effect:none;fill:#130754;fill-opacity:1;stroke:#ffffff;stroke-width:0.0734336;stroke-linecap:butt;stroke-linejoin:miter;stroke-miterlimit:4;stroke-dasharray:none;stroke-dashoffset:0;stroke-opacity:1;stop-color:#000000;stop-opacity:1"
           d="m -368.06078,559.50001 8.66024,-5.00001 -2e-5,-17.99998 -8.66024,4.99999 z"
           id="path2388"
           sodipodi:nodetypes="ccccc" />
        <path
           style="font-variation-settings:normal;opacity:1;vector-effect:none;fill:#130754;fill-opacity:1;stroke:#ffffff;stroke-width:0.0734336;stroke-linecap:butt;stroke-linejoin:miter;stroke-miterlimit:4;stroke-dasharray:none;stroke-dashoffset:0;stroke-opacity:1;stop-color:#000000;stop-opacity:1"
           d="m -359.40056,536.50002 -8.66024,-5.00002 -8.66026,5.00002 8.66026,4.99999 z"
           id="path2390" />
      </g>
      <g
         id="g2419"
         style="stroke:#ffffff;stroke-width:0.0734336;stroke-miterlimit:4;stroke-dasharray:none;stroke-opacity:1">
        <path
           style="font-variation-settings:normal;opacity:1;vector-effect:none;fill:#130754;fill-opacity:1;stroke:#ffffff;stroke-width:0.0734336;stroke-linecap:butt;stroke-linejoin:miter;stroke-miterlimit:4;stroke-dasharray:none;stroke-dashoffset:0;stroke-opacity:1;stop-color:#000000;stop-opacity:1"
           d="m -381.05117,540 v 65 l -8.66026,4.99999 v -65 L -381.05117,540"
           id="path2392" />
        <path
           style="font-variation-settings:normal;opacity:1;vector-effect:none;fill:#130754;fill-opacity:1;stroke:#ffffff;stroke-width:0.0734336;stroke-linecap:butt;stroke-linejoin:miter;stroke-miterlimit:4;stroke-dasharray:none;stroke-dashoffset:0;stroke-opacity:1;stop-color:#000000;stop-opacity:1"
           d="M -389.71143,609.99999 -398.37169,605 v -65 l 8.66026,4.99999 v 65"
           id="path2400" />
        <path
           style="font-variation-settings:normal;opacity:1;vector-effect:none;fill:#130754;fill-opacity:1;stroke:#ffffff;stroke-width:0.0734336;stroke-linecap:butt;stroke-linejoin:miter;stroke-miterlimit:4;stroke-dasharray:none;stroke-dashoffset:0;stroke-opacity:1;stop-color:#000000;stop-opacity:1"
           d="m -398.37169,540 8.66026,-5.00002 8.66026,5.00002 -8.66026,4.99999 z"
           id="path2408" />
      </g>
      <g
         id="g2450"
         transform="translate(21.650633,-8.49999)"
         style="stroke:#ffffff;stroke-width:0.0734336;stroke-miterlimit:4;stroke-dasharray:none;stroke-opacity:1">
        <path
           style="font-variation-settings:normal;opacity:1;vector-effect:none;fill:#130754;fill-opacity:1;stroke:#ffffff;stroke-width:0.0734336;stroke-linecap:butt;stroke-linejoin:miter;stroke-miterlimit:4;stroke-dasharray:none;stroke-dashoffset:0;stroke-opacity:1;stop-color:#000000;stop-opacity:1"
           d="m -376.72106,580.50001 v 17.99997 l 8.66026,5.00001 V 585.5 Z"
           id="path2432"
           sodipodi:nodetypes="ccccc" />
        <path
           style="font-variation-settings:normal;opacity:1;vector-effect:none;fill:#130754;fill-opacity:1;stroke:#ffffff;stroke-width:0.0734336;stroke-linecap:butt;stroke-linejoin:miter;stroke-miterlimit:4;stroke-dasharray:none;stroke-dashoffset:0;stroke-opacity:1;stop-color:#000000;stop-opacity:1"
           d="m -368.06078,603.5 8.66024,-5.00001 -2e-5,-17.99998 -8.66024,4.99999 z"
           id="path2434"
           sodipodi:nodetypes="ccccc" />
        <path
           style="font-variation-settings:normal;opacity:1;vector-effect:none;fill:#130754;fill-opacity:1;stroke:#ffffff;stroke-width:0.0734336;stroke-linecap:butt;stroke-linejoin:miter;stroke-miterlimit:4;stroke-dasharray:none;stroke-dashoffset:0;stroke-opacity:1;stop-color:#000000;stop-opacity:1"
           d="m -359.40056,580.50001 -8.66024,-5.00002 -8.66026,5.00002 8.66026,4.99999 z"
           id="path2436" />
        <path
           style="font-variation-settings:normal;opacity:1;vector-effect:none;fill:#e70488;fill-opacity:1;stroke:#ffffff;stroke-width:0.0734336;stroke-linecap:butt;stroke-linejoin:miter;stroke-miterlimit:4;stroke-dasharray:none;stroke-dashoffset:0;stroke-opacity:1;stop-color:#000000;stop-opacity:1"
           d="m -376.72105,562.50001 v 9.99998 l 8.66026,5.00001 v -10 z"
           id="path2438" />
        <path
           style="font-variation-settings:normal;opacity:1;vector-effect:none;fill:#e70488;fill-opacity:1;stroke:#ffffff;stroke-width:0.0734336;stroke-linecap:butt;stroke-linejoin:miter;stroke-miterlimit:4;stroke-dasharray:none;stroke-dashoffset:0;stroke-opacity:1;stop-color:#000000;stop-opacity:1"
           d="m -368.06079,577.5 8.66024,-5.00001 v -9.99998 l -8.66024,4.99999 z"
           id="path2440" />
        <path
           style="font-variation-settings:normal;opacity:1;vector-effect:none;fill:#e70488;fill-opacity:1;stroke:#ffffff;stroke-width:0.0734336;stroke-linecap:butt;stroke-linejoin:miter;stroke-miterlimit:4;stroke-dasharray:none;stroke-dashoffset:0;stroke-opacity:1;stop-color:#000000;stop-opacity:1"
           d="m -359.40055,562.50001 -8.66024,-5.00002 -8.66026,5.00002 8.66026,4.99999 z"
           id="path2442" />
        <path
           style="font-variation-settings:normal;opacity:1;vector-effect:none;fill:#130754;fill-opacity:1;stroke:#ffffff;stroke-width:0.0734336;stroke-linecap:butt;stroke-linejoin:miter;stroke-miterlimit:4;stroke-dasharray:none;stroke-dashoffset:0;stroke-opacity:1;stop-color:#000000;stop-opacity:1"
           d="m -376.72106,536.50002 v 17.99997 l 8.66026,5.00001 v -17.99999 z"
           id="path2444"
           sodipodi:nodetypes="ccccc" />
        <path
           style="font-variation-settings:normal;opacity:1;vector-effect:none;fill:#130754;fill-opacity:1;stroke:#ffffff;stroke-width:0.0734336;stroke-linecap:butt;stroke-linejoin:miter;stroke-miterlimit:4;stroke-dasharray:none;stroke-dashoffset:0;stroke-opacity:1;stop-color:#000000;stop-opacity:1"
           d="m -368.06078,559.50001 8.66024,-5.00001 -2e-5,-17.99998 -8.66024,4.99999 z"
           id="path2446"
           sodipodi:nodetypes="ccccc" />
        <path
           style="font-variation-settings:normal;opacity:1;vector-effect:none;fill:#130754;fill-opacity:1;stroke:#ffffff;stroke-width:0.0734336;stroke-linecap:butt;stroke-linejoin:miter;stroke-miterlimit:4;stroke-dasharray:none;stroke-dashoffset:0;stroke-opacity:1;stop-color:#000000;stop-opacity:1"
           d="m -359.40056,536.50002 -8.66024,-5.00002 -8.66026,5.00002 8.66026,4.99999 z"
           id="path2448" />
      </g>
      <g
         id="g2458"
         transform="translate(64.951904,-47.49999)"
         style="stroke:#ffffff;stroke-width:0.0734336;stroke-miterlimit:4;stroke-dasharray:none;stroke-opacity:1">
        <path
           style="font-variation-settings:normal;opacity:1;vector-effect:none;fill:#130754;fill-opacity:1;stroke:#ffffff;stroke-width:0.0734336;stroke-linecap:butt;stroke-linejoin:miter;stroke-miterlimit:4;stroke-dasharray:none;stroke-dashoffset:0;stroke-opacity:1;stop-color:#000000;stop-opacity:1"
           d="m -381.05117,540 v 65 l -8.66026,4.99999 v -65 L -381.05117,540"
           id="path2452" />
        <path
           style="font-variation-settings:normal;opacity:1;vector-effect:none;fill:#130754;fill-opacity:1;stroke:#ffffff;stroke-width:0.0734336;stroke-linecap:butt;stroke-linejoin:miter;stroke-miterlimit:4;stroke-dasharray:none;stroke-dashoffset:0;stroke-opacity:1;stop-color:#000000;stop-opacity:1"
           d="M -389.71143,609.99999 -398.37169,605 v -65 l 8.66026,4.99999 v 65"
           id="path2454" />
        <path
           style="font-variation-settings:normal;opacity:1;vector-effect:none;fill:#130754;fill-opacity:1;stroke:#ffffff;stroke-width:0.0734336;stroke-linecap:butt;stroke-linejoin:miter;stroke-miterlimit:4;stroke-dasharray:none;stroke-dashoffset:0;stroke-opacity:1;stop-color:#000000;stop-opacity:1"
           d="m -398.37169,540 8.66026,-5.00002 8.66026,5.00002 -8.66026,4.99999 z"
           id="path2456" />
      </g>
    </g>
    <g
       id="g991"
       transform="translate(0,-0.50809771)">
      <path
         d="m 429.14236,137.49272 q 0,9.88069 -2.38499,18.4837 -2.385,8.51784 -6.98462,14.82104 -4.59964,6.3032 -11.41391,9.88069 -6.72909,3.57748 -15.41728,3.57748 -8.43266,0 -14.90622,-2.7257 -6.38837,-2.72571 -10.98801,-7.8364 v 44.29274 H 351.28935 V 90.389085 h 14.39514 l 0.7666,10.051045 q 4.59963,-5.706944 11.07318,-8.688186 6.55874,-3.066431 15.16176,-3.066431 8.85854,0 15.67281,3.492321 6.81427,3.49231 11.41391,9.710326 4.59962,6.21803 6.98462,14.90622 2.38499,8.60301 2.38499,18.9096 z m -15.758,-1.78874 q 0,-6.7291 -1.5332,-12.77676 -1.44804,-6.13284 -4.59964,-10.73247 -3.06642,-4.68482 -7.83641,-7.41053 -4.76999,-2.7257 -11.4139,-2.7257 -7.58087,0 -12.77675,3.5775 -5.11071,3.49231 -8.17713,9.0289 v 44.37792 q 3.06642,5.45142 8.17713,8.94374 5.1107,3.40713 12.94711,3.40713 6.55873,0 11.32872,-2.72571 4.76999,-2.81088 7.83641,-7.4957 3.06642,-4.68481 4.51446,-10.81765 1.5332,-6.13284 1.5332,-12.86193 z"
         style="font-style:normal;font-variant:normal;font-weight:normal;font-stretch:normal;font-size:156.304px;line-height:1.25;font-family:'RobotoMono Nerd Font';-inkscape-font-specification:'RobotoMono Nerd Font';letter-spacing:0px;word-spacing:0px;fill:#130754;fill-opacity:1;stroke-width:0.264583"
         id="path972" />
      <path
         d="m 453.16266,135.70398 q 0,-10.30659 2.47016,-18.9096 2.55535,-8.68819 7.32535,-14.90622 4.76999,-6.218016 11.58425,-9.710326 6.81427,-3.492321 15.41729,-3.492321 8.51783,0 14.90622,3.066431 6.47355,2.981242 10.988,8.688186 l 0.76661,-10.051045 h 14.30996 v 90.203885 q 0,9.11408 -2.89607,16.18389 -2.81088,7.06981 -8.00676,12.01014 -5.1107,4.94035 -12.26568,7.4957 -7.15499,2.55535 -15.84318,2.55535 -3.5775,0 -8.17712,-0.85178 -4.59963,-0.7666 -9.36963,-2.64053 -4.6848,-1.78875 -9.11408,-4.85517 -4.3441,-3.06642 -7.4957,-7.58087 l 8.17713,-9.4548 q 2.89606,3.49231 5.96248,5.87731 3.06643,2.47017 6.21803,3.9182 3.1516,1.44804 6.30319,2.04428 3.1516,0.68143 6.3032,0.68143 5.62177,0 10.13623,-1.61839 4.51445,-1.61839 7.66605,-4.76999 3.23678,-3.06642 4.94035,-7.66605 1.70356,-4.59963 1.70356,-10.56212 v -7.92158 q -4.59962,5.28105 -10.90283,8.09194 -6.21802,2.7257 -14.48032,2.7257 -8.43266,0 -15.24693,-3.57748 -6.81426,-3.57749 -11.58425,-9.88069 -4.68482,-6.3032 -7.24016,-14.82104 -2.55535,-8.60301 -2.55535,-18.4837 z m 15.75799,1.78874 q 0,6.72909 1.36286,12.77675 1.44802,6.04766 4.42927,10.6473 3.06643,4.59963 7.75123,7.32534 4.68481,2.64053 11.24354,2.64053 4.08857,0 7.32534,-0.93697 3.32196,-1.02213 5.87731,-2.81088 2.64053,-1.78874 4.68481,-4.25892 2.04429,-2.47017 3.57749,-5.45141 v -42.24847 q -1.5332,-2.89607 -3.57749,-5.28106 -2.04428,-2.385 -4.68481,-4.08856 -2.64053,-1.78875 -5.87731,-2.72571 -3.23677,-1.02214 -7.15497,-1.02214 -6.64392,0 -11.41391,2.7257 -4.6848,2.72571 -7.75123,7.41053 -2.98125,4.59963 -4.42927,10.73247 -1.36286,6.04766 -1.36286,12.77676 z"
         style="font-style:normal;font-variant:normal;font-weight:normal;font-stretch:normal;font-size:156.304px;line-height:1.25;font-family:'RobotoMono Nerd Font';-inkscape-font-specification:'RobotoMono Nerd Font';letter-spacing:0px;word-spacing:0px;fill:#130754;fill-opacity:1;stroke-width:0.264583"
         id="path974" />
      <path
         d="m 690.85274,137.49272 q 0,9.88069 -2.38499,18.4837 -2.385,8.51784 -6.98464,14.82104 -4.59963,6.3032 -11.41389,9.88069 -6.7291,3.57748 -15.41729,3.57748 -8.43266,0 -14.90621,-2.7257 -6.38838,-2.72571 -10.98801,-7.8364 v 44.29274 h -15.758 V 90.389085 h 14.39514 l 0.76661,10.051045 q 4.59963,-5.706944 11.07319,-8.688186 6.55873,-3.066431 15.16175,-3.066431 8.85854,0 15.67282,3.492321 6.81426,3.49231 11.41389,9.710326 4.59964,6.21803 6.98464,14.90622 2.38499,8.60301 2.38499,18.9096 z m -15.758,-1.78874 q 0,-6.7291 -1.53321,-12.77676 -1.44803,-6.13284 -4.59964,-10.73247 -3.06642,-4.68482 -7.8364,-7.41053 -4.76999,-2.7257 -11.41391,-2.7257 -7.58086,0 -12.77674,3.5775 -5.11071,3.49231 -8.17713,9.0289 v 44.37792 q 3.06642,5.45142 8.17713,8.94374 5.1107,3.40713 12.9471,3.40713 6.55874,0 11.32873,-2.72571 4.76998,-2.81088 7.8364,-7.4957 3.06643,-4.68481 4.51446,-10.81765 1.53321,-6.13284 1.53321,-12.86193 z"
         style="font-style:normal;font-variant:normal;font-weight:normal;font-stretch:normal;font-size:156.304px;line-height:1.25;font-family:'RobotoMono Nerd Font';-inkscape-font-specification:'RobotoMono Nerd Font';letter-spacing:0px;word-spacing:0px;fill:#130754;fill-opacity:1;stroke-width:0.264583"
         id="path976" />
      <path
         d="m 714.78784,135.70398 q 0,-10.30659 2.55535,-18.9096 2.64053,-8.68819 7.41052,-14.90622 4.85517,-6.218016 11.66943,-9.710326 6.81428,-3.492321 15.24694,-3.492321 8.2623,0 14.39514,2.810886 6.21801,2.725707 10.73247,8.006767 V 51.718109 h 15.758 V 182.55207 h -14.48033 l -0.68142,-9.71033 q -4.59964,5.62177 -10.98801,8.51783 -6.38838,2.89606 -14.90621,2.89606 -8.34748,0 -15.16175,-3.57748 -6.72909,-3.57749 -11.49908,-9.88069 -4.76999,-6.3032 -7.41052,-14.82104 -2.64053,-8.60301 -2.64053,-18.4837 z m 15.758,1.78874 q 0,6.72909 1.44803,12.77675 1.44803,6.04766 4.42927,10.6473 3.06642,4.59963 7.75124,7.32534 4.68481,2.64053 11.24354,2.64053 4.00339,0 7.24016,-0.93697 3.23678,-0.93696 5.87731,-2.64053 2.64053,-1.78874 4.68481,-4.17373 2.04427,-2.47018 3.57749,-5.45142 v -42.75954 q -3.06642,-5.62177 -8.2623,-9.19926 -5.19588,-3.66267 -12.94711,-3.66267 -6.64391,0 -11.4139,2.7257 -4.68482,2.72571 -7.75124,7.41053 -2.98124,4.59963 -4.42927,10.73247 -1.44803,6.04766 -1.44803,12.77676 z"
         style="font-style:normal;font-variant:normal;font-weight:normal;font-stretch:normal;font-size:156.304px;line-height:1.25;font-family:'RobotoMono Nerd Font';-inkscape-font-specification:'RobotoMono Nerd Font';letter-spacing:0px;word-spacing:0px;fill:#130754;fill-opacity:1;stroke-width:0.264583"
         id="path978" />
    </g>
  </g>
</svg>
